<?xml version="1.0" encoding="UTF-8" standalone="no"?>
<svg
   id="visual"
   viewBox="0 0 960 80"
   width="960"
   height="80"
   version="1.1"
   sodipodi:docname="layered-waves-haikei.svg"
   inkscape:version="1.4.3 (0d15f75, 2025-12-25)"
   xmlns:inkscape="http://www.inkscape.org/namespaces/inkscape"
   xmlns:sodipodi="http://sodipodi.sourceforge.net/DTD/sodipodi-0.dtd"
   xmlns="http://www.w3.org/2000/svg"
   xmlns:svg="http://www.w3.org/2000/svg">
  <defs
     id="defs3" />
  <sodipodi:namedview
     id="namedview3"
     pagecolor="#ffffff"
     bordercolor="#000000"
     borderopacity="0.25"
     inkscape:showpageshadow="2"
     inkscape:pageopacity="0.0"
     inkscape:pagecheckerboard="0"
     inkscape:deskcolor="#d1d1d1"
     inkscape:zoom="2.4380453"
     inkscape:cx="452.41162"
     inkscape:cy="62.55011"
     inkscape:window-width="3440"
     inkscape:window-height="1369"
     inkscape:window-x="-8"
     inkscape:window-y="-8"
     inkscape:window-maximized="1"
     inkscape:current-layer="visual" />
  <rect
     x="0"
     y="0"
     width="960"
     height="80"
     fill="#001220"
     id="rect1"
     style="display:inline;fill:#121212;fill-opacity:1"
     inkscape:label="rect1" />
  <path
     d="m 0,22 26.7,3 c 26.6,3 80,9 133.3,8.8 53.3,-0.1 106.7,-6.5 160,-8.1 53.3,-1.7 106.7,1.3 160,5 53.3,3.6 106.7,8 160,8.5 53.3,0.5 106.7,-2.9 160,-6.4 53.3,-3.5 106.7,-7.1 133.3,-9 L 960,22 v 59 h -26.7 c -26.6,0 -80,0 -133.3,0 -53.3,0 -106.7,0 -160,0 -53.3,0 -106.7,0 -160,0 -53.3,0 -106.7,0 -160,0 -53.3,0 -106.7,0 -160,0 -53.3,0 -106.7,0 -133.3,0 H 0 Z"
     fill="#2ea8ff"
     id="path1"
     style="display:inline" />
  <path
     d="m 0,50 26.7,-2.7 c 26.6,-2.6 80,-8 133.3,-10.1 53.3,-2.2 106.7,-1.2 160,0 53.3,1.1 106.7,2.5 160,5.6 53.3,3.2 106.7,8.2 160,7.7 53.3,-0.5 106.7,-6.5 160,-7.2 53.3,-0.6 106.7,4 133.3,6.4 L 960,52 v 29 h -26.7 c -26.6,0 -80,0 -133.3,0 -53.3,0 -106.7,0 -160,0 -53.3,0 -106.7,0 -160,0 -53.3,0 -106.7,0 -160,0 -53.3,0 -106.7,0 -160,0 -53.3,0 -106.7,0 -133.3,0 H 0 Z"
     fill="#ff79c1"
     id="path2"
     style="display:inline" />
  <path
     d="m 0,66 26.7,-0.7 c 26.6,-0.6 80,-2 133.3,-1.6 53.3,0.3 106.7,2.3 160,2.5 53.3,0.1 106.7,-1.5 160,-3.4 53.3,-1.8 106.7,-3.8 160,-4 53.3,-0.1 106.7,1.5 160,2.9 53.3,1.3 106.7,2.3 133.3,2.8 L 960,65 v 16 h -26.7 c -26.6,0 -80,0 -133.3,0 -53.3,0 -106.7,0 -160,0 -53.3,0 -106.7,0 -160,0 -53.3,0 -106.7,0 -160,0 -53.3,0 -106.7,0 -160,0 -53.3,0 -106.7,0 -133.3,0 H 0 Z"
     fill="#f9b110"
     id="path3"
     style="display:inline" />
</svg>
