<svg id="visual" viewBox="0 0 960 80" width="960" height="80" xmlns="http://www.w3.org/2000/svg" xmlns:xlink="http://www.w3.org/1999/xlink" version="1.1"><rect x="0" y="0" width="960" height="80" fill="#121212"></rect><path d="M0 43L42 43L42 69L83 69L83 40L125 40L125 67L167 67L167 71L209 71L209 38L250 38L250 67L292 67L292 53L334 53L334 35L376 35L376 17L417 17L417 31L459 31L459 57L501 57L501 21L543 21L543 22L584 22L584 44L626 44L626 44L668 44L668 22L710 22L710 66L751 66L751 77L793 77L793 46L835 46L835 22L877 22L877 42L918 42L918 60L960 60L960 77L960 0L960 0L918 0L918 0L877 0L877 0L835 0L835 0L793 0L793 0L751 0L751 0L710 0L710 0L668 0L668 0L626 0L626 0L584 0L584 0L543 0L543 0L501 0L501 0L459 0L459 0L417 0L417 0L376 0L376 0L334 0L334 0L292 0L292 0L250 0L250 0L209 0L209 0L167 0L167 0L125 0L125 0L83 0L83 0L42 0L42 0L0 0Z" fill="#2ea8ff"></path><path d="M0 24L42 24L42 32L83 32L83 19L125 19L125 47L167 47L167 32L209 32L209 54L250 54L250 70L292 70L292 28L334 28L334 30L376 30L376 71L417 71L417 50L459 50L459 37L501 37L501 58L543 58L543 42L584 42L584 34L626 34L626 13L668 13L668 30L710 30L710 52L751 52L751 44L793 44L793 59L835 59L835 66L877 66L877 64L918 64L918 56L960 56L960 17L960 0L960 0L918 0L918 0L877 0L877 0L835 0L835 0L793 0L793 0L751 0L751 0L710 0L710 0L668 0L668 0L626 0L626 0L584 0L584 0L543 0L543 0L501 0L501 0L459 0L459 0L417 0L417 0L376 0L376 0L334 0L334 0L292 0L292 0L250 0L250 0L209 0L209 0L167 0L167 0L125 0L125 0L83 0L83 0L42 0L42 0L0 0Z" fill="#6ea1ff"></path><path d="M0 22L42 22L42 56L83 56L83 61L125 61L125 31L167 31L167 29L209 29L209 42L250 42L250 61L292 61L292 35L334 35L334 63L376 63L376 54L417 54L417 60L459 60L459 27L501 27L501 45L543 45L543 28L584 28L584 36L626 36L626 42L668 42L668 21L710 21L710 31L751 31L751 38L793 38L793 52L835 52L835 64L877 64L877 28L918 28L918 62L960 62L960 53L960 0L960 0L918 0L918 0L877 0L877 0L835 0L835 0L793 0L793 0L751 0L751 0L710 0L710 0L668 0L668 0L626 0L626 0L584 0L584 0L543 0L543 0L501 0L501 0L459 0L459 0L417 0L417 0L376 0L376 0L334 0L334 0L292 0L292 0L250 0L250 0L209 0L209 0L167 0L167 0L125 0L125 0L83 0L83 0L42 0L42 0L0 0Z" fill="#9b99fd"></path><path d="M0 56L42 56L42 57L83 57L83 43L125 43L125 18L167 18L167 58L209 58L209 23L250 23L250 23L292 23L292 24L334 24L334 44L376 44L376 23L417 23L417 16L459 16L459 10L501 10L501 15L543 15L543 41L584 41L584 38L626 38L626 32L668 32L668 60L710 60L710 37L751 37L751 22L793 22L793 35L835 35L835 25L877 25L877 45L918 45L918 26L960 26L960 9L960 0L960 0L918 0L918 0L877 0L877 0L835 0L835 0L793 0L793 0L751 0L751 0L710 0L710 0L668 0L668 0L626 0L626 0L584 0L584 0L543 0L543 0L501 0L501 0L459 0L459 0L417 0L417 0L376 0L376 0L334 0L334 0L292 0L292 0L250 0L250 0L209 0L209 0L167 0L167 0L125 0L125 0L83 0L83 0L42 0L42 0L0 0Z" fill="#c090f3"></path><path d="M0 40L42 40L42 42L83 42L83 14L125 14L125 47L167 47L167 23L209 23L209 11L250 11L250 45L292 45L292 25L334 25L334 37L376 37L376 9L417 9L417 39L459 39L459 50L501 50L501 14L543 14L543 23L584 23L584 15L626 15L626 53L668 53L668 45L710 45L710 28L751 28L751 48L793 48L793 13L835 13L835 44L877 44L877 16L918 16L918 37L960 37L960 42L960 0L960 0L918 0L918 0L877 0L877 0L835 0L835 0L793 0L793 0L751 0L751 0L710 0L710 0L668 0L668 0L626 0L626 0L584 0L584 0L543 0L543 0L501 0L501 0L459 0L459 0L417 0L417 0L376 0L376 0L334 0L334 0L292 0L292 0L250 0L250 0L209 0L209 0L167 0L167 0L125 0L125 0L83 0L83 0L42 0L42 0L0 0Z" fill="#de86e2"></path><path d="M0 27L42 27L42 35L83 35L83 15L125 15L125 18L167 18L167 28L209 28L209 34L250 34L250 48L292 48L292 9L334 9L334 10L376 10L376 18L417 18L417 41L459 41L459 23L501 23L501 23L543 23L543 30L584 30L584 11L626 11L626 23L668 23L668 25L710 25L710 16L751 16L751 27L793 27L793 23L835 23L835 21L877 21L877 35L918 35L918 34L960 34L960 22L960 0L960 0L918 0L918 0L877 0L877 0L835 0L835 0L793 0L793 0L751 0L751 0L710 0L710 0L668 0L668 0L626 0L626 0L584 0L584 0L543 0L543 0L501 0L501 0L459 0L459 0L417 0L417 0L376 0L376 0L334 0L334 0L292 0L292 0L250 0L250 0L209 0L209 0L167 0L167 0L125 0L125 0L83 0L83 0L42 0L42 0L0 0Z" fill="#f67dcd"></path><path d="M0 37L42 37L42 22L83 22L83 10L125 10L125 21L167 21L167 22L209 22L209 26L250 26L250 41L292 41L292 7L334 7L334 29L376 29L376 10L417 10L417 42L459 42L459 38L501 38L501 24L543 24L543 15L584 15L584 31L626 31L626 32L668 32L668 7L710 7L710 28L751 28L751 6L793 6L793 31L835 31L835 13L877 13L877 32L918 32L918 41L960 41L960 41L960 0L960 0L918 0L918 0L877 0L877 0L835 0L835 0L793 0L793 0L751 0L751 0L710 0L710 0L668 0L668 0L626 0L626 0L584 0L584 0L543 0L543 0L501 0L501 0L459 0L459 0L417 0L417 0L376 0L376 0L334 0L334 0L292 0L292 0L250 0L250 0L209 0L209 0L167 0L167 0L125 0L125 0L83 0L83 0L42 0L42 0L0 0Z" fill="#ff76b4"></path><path d="M0 12L42 12L42 14L83 14L83 22L125 22L125 34L167 34L167 23L209 23L209 11L250 11L250 5L292 5L292 21L334 21L334 20L376 20L376 32L417 32L417 36L459 36L459 25L501 25L501 11L543 11L543 29L584 29L584 15L626 15L626 10L668 10L668 19L710 19L710 17L751 17L751 35L793 35L793 26L835 26L835 21L877 21L877 20L918 20L918 11L960 11L960 11L960 0L960 0L918 0L918 0L877 0L877 0L835 0L835 0L793 0L793 0L751 0L751 0L710 0L710 0L668 0L668 0L626 0L626 0L584 0L584 0L543 0L543 0L501 0L501 0L459 0L459 0L417 0L417 0L376 0L376 0L334 0L334 0L292 0L292 0L250 0L250 0L209 0L209 0L167 0L167 0L125 0L125 0L83 0L83 0L42 0L42 0L0 0Z" fill="#ff7697"></path><path d="M0 8L42 8L42 6L83 6L83 28L125 28L125 8L167 8L167 3L209 3L209 27L250 27L250 19L292 19L292 5L334 5L334 6L376 6L376 22L417 22L417 16L459 16L459 4L501 4L501 12L543 12L543 11L584 11L584 14L626 14L626 11L668 11L668 9L710 9L710 28L751 28L751 29L793 29L793 13L835 13L835 28L877 28L877 29L918 29L918 23L960 23L960 17L960 0L960 0L918 0L918 0L877 0L877 0L835 0L835 0L793 0L793 0L751 0L751 0L710 0L710 0L668 0L668 0L626 0L626 0L584 0L584 0L543 0L543 0L501 0L501 0L459 0L459 0L417 0L417 0L376 0L376 0L334 0L334 0L292 0L292 0L250 0L250 0L209 0L209 0L167 0L167 0L125 0L125 0L83 0L83 0L42 0L42 0L0 0Z" fill="#ff7d78"></path><path d="M0 6L42 6L42 23L83 23L83 3L125 3L125 22L167 22L167 18L209 18L209 7L250 7L250 6L292 6L292 4L334 4L334 4L376 4L376 18L417 18L417 17L459 17L459 23L501 23L501 23L543 23L543 11L584 11L584 11L626 11L626 12L668 12L668 8L710 8L710 12L751 12L751 7L793 7L793 4L835 4L835 2L877 2L877 10L918 10L918 12L960 12L960 10L960 0L960 0L918 0L918 0L877 0L877 0L835 0L835 0L793 0L793 0L751 0L751 0L710 0L710 0L668 0L668 0L626 0L626 0L584 0L584 0L543 0L543 0L501 0L501 0L459 0L459 0L417 0L417 0L376 0L376 0L334 0L334 0L292 0L292 0L250 0L250 0L209 0L209 0L167 0L167 0L125 0L125 0L83 0L83 0L42 0L42 0L0 0Z" fill="#ff8b59"></path><path d="M0 12L42 12L42 10L83 10L83 4L125 4L125 2L167 2L167 17L209 17L209 7L250 7L250 1L292 1L292 17L334 17L334 17L376 17L376 10L417 10L417 6L459 6L459 1L501 1L501 9L543 9L543 14L584 14L584 10L626 10L626 13L668 13L668 0L710 0L710 4L751 4L751 17L793 17L793 4L835 4L835 10L877 10L877 3L918 3L918 0L960 0L960 13L960 0L960 0L918 0L918 0L877 0L877 0L835 0L835 0L793 0L793 0L751 0L751 0L710 0L710 0L668 0L668 0L626 0L626 0L584 0L584 0L543 0L543 0L501 0L501 0L459 0L459 0L417 0L417 0L376 0L376 0L334 0L334 0L292 0L292 0L250 0L250 0L209 0L209 0L167 0L167 0L125 0L125 0L83 0L83 0L42 0L42 0L0 0Z" fill="#ff9e38"></path><path d="M0 3L42 3L42 5L83 5L83 0L125 0L125 4L167 4L167 5L209 5L209 1L250 1L250 4L292 4L292 5L334 5L334 0L376 0L376 11L417 11L417 9L459 9L459 0L501 0L501 5L543 5L543 8L584 8L584 6L626 6L626 1L668 1L668 8L710 8L710 1L751 1L751 6L793 6L793 10L835 10L835 0L877 0L877 11L918 11L918 2L960 2L960 1L960 0L960 0L918 0L918 0L877 0L877 0L835 0L835 0L793 0L793 0L751 0L751 0L710 0L710 0L668 0L668 0L626 0L626 0L584 0L584 0L543 0L543 0L501 0L501 0L459 0L459 0L417 0L417 0L376 0L376 0L334 0L334 0L292 0L292 0L250 0L250 0L209 0L209 0L167 0L167 0L125 0L125 0L83 0L83 0L42 0L42 0L0 0Z" fill="#f9b110"></path></svg>