<svg id="visual" viewBox="0 0 960 80" width="960" height="80" xmlns="http://www.w3.org/2000/svg" xmlns:xlink="http://www.w3.org/1999/xlink" version="1.1"><rect x="0" y="0" width="960" height="80" fill="#fffcf8"></rect><path d="M0 47L14.5 45.8C29 44.7 58 42.3 87.2 37.7C116.3 33 145.7 26 174.8 31.3C204 36.7 233 54.3 262 64.2C291 74 320 76 349 66.2C378 56.3 407 34.7 436.2 33C465.3 31.3 494.7 49.7 523.8 57.3C553 65 582 62 611 55.8C640 49.7 669 40.3 698 43.3C727 46.3 756 61.7 785.2 57.7C814.3 53.7 843.7 30.3 872.8 23.3C902 16.3 931 25.7 945.5 30.3L960 35L960 0L945.5 0C931 0 902 0 872.8 0C843.7 0 814.3 0 785.2 0C756 0 727 0 698 0C669 0 640 0 611 0C582 0 553 0 523.8 0C494.7 0 465.3 0 436.2 0C407 0 378 0 349 0C320 0 291 0 262 0C233 0 204 0 174.8 0C145.7 0 116.3 0 87.2 0C58 0 29 0 14.5 0L0 0Z" fill="#121212"></path></svg>