<svg id="visual" viewBox="0 0 960 80" width="960" height="80" xmlns="http://www.w3.org/2000/svg" xmlns:xlink="http://www.w3.org/1999/xlink" version="1.1"><rect x="0" y="0" width="960" height="80" fill="#fffcf8"></rect><path d="M0 30L13.3 36.7C26.7 43.3 53.3 56.7 80 57.3C106.7 58 133.3 46 160 46C186.7 46 213.3 58 240 54.7C266.7 51.3 293.3 32.7 320 27.5C346.7 22.3 373.3 30.7 400 31.7C426.7 32.7 453.3 26.3 480 31C506.7 35.7 533.3 51.3 560 49.5C586.7 47.7 613.3 28.3 640 17.8C666.7 7.3 693.3 5.7 720 15.7C746.7 25.7 773.3 47.3 800 58.2C826.7 69 853.3 69 880 64.8C906.7 60.7 933.3 52.3 946.7 48.2L960 44L960 81L946.7 81C933.3 81 906.7 81 880 81C853.3 81 826.7 81 800 81C773.3 81 746.7 81 720 81C693.3 81 666.7 81 640 81C613.3 81 586.7 81 560 81C533.3 81 506.7 81 480 81C453.3 81 426.7 81 400 81C373.3 81 346.7 81 320 81C293.3 81 266.7 81 240 81C213.3 81 186.7 81 160 81C133.3 81 106.7 81 80 81C53.3 81 26.7 81 13.3 81L0 81Z" fill="#121212" stroke-linecap="round" stroke-linejoin="miter"></path></svg>